<svg width="23" height="18" viewBox="0 0 23 18" fill="none" xmlns="http://www.w3.org/2000/svg">
<path d="M19.4507 2.00963C18.0573 1.36009 16.5487 0.888648 14.9773 0.616259C14.9635 0.615818 14.9498 0.618404 14.9371 0.623834C14.9244 0.629265 14.9131 0.637408 14.9039 0.647689C14.7153 0.993413 14.4953 1.4439 14.3487 1.78962C12.6819 1.53819 10.9868 1.53819 9.31996 1.78962C9.17329 1.43342 8.95329 0.993413 8.75423 0.647689C8.74376 0.626736 8.71233 0.616259 8.6809 0.616259C7.10942 0.888648 5.61129 1.36009 4.20744 2.00963C4.19696 2.00963 4.18649 2.02011 4.17601 2.03058C1.32641 6.29451 0.540673 10.4432 0.928302 14.55C0.928302 14.5709 0.938779 14.5919 0.959732 14.6024C2.8455 15.9853 4.65793 16.8234 6.44941 17.3786C6.48084 17.3891 6.51227 17.3786 6.52274 17.3577C6.9418 16.7815 7.31895 16.1738 7.64372 15.5348C7.66468 15.4929 7.64373 15.4509 7.60182 15.4405C7.00466 15.21 6.43893 14.9376 5.88368 14.6233C5.84177 14.6024 5.84177 14.5395 5.8732 14.5081C5.98844 14.4243 6.10368 14.33 6.21892 14.2462C6.23988 14.2252 6.27131 14.2252 6.29226 14.2357C9.89617 15.8805 13.7829 15.8805 17.3449 14.2357C17.3659 14.2252 17.3973 14.2252 17.4183 14.2462C17.5335 14.3404 17.6488 14.4243 17.764 14.5185C17.8059 14.55 17.8059 14.6128 17.7535 14.6338C17.2087 14.9586 16.6325 15.2205 16.0354 15.451C15.9935 15.4614 15.983 15.5138 15.9935 15.5452C16.3287 16.1843 16.7059 16.7919 17.1145 17.3681C17.1459 17.3786 17.1773 17.3891 17.2087 17.3786C19.0107 16.8234 20.8231 15.9853 22.7089 14.6024C22.7299 14.5919 22.7403 14.5709 22.7403 14.55C23.2013 9.80413 21.9755 5.68687 19.4926 2.03058C19.4821 2.02011 19.4717 2.00963 19.4507 2.00963ZM8.1885 12.0461C7.10943 12.0461 6.20845 11.0508 6.20845 9.82508C6.20845 8.59933 7.08847 7.60407 8.1885 7.60407C9.29901 7.60407 10.179 8.60981 10.1686 9.82508C10.1686 11.0508 9.28853 12.0461 8.1885 12.0461ZM15.4906 12.0461C14.4115 12.0461 13.5106 11.0508 13.5106 9.82508C13.5106 8.59933 14.3906 7.60407 15.4906 7.60407C16.6011 7.60407 17.4811 8.60981 17.4707 9.82508C17.4707 11.0508 16.6011 12.0461 15.4906 12.0461Z" fill="#fff" />
</svg>
