<svg width="64" height="61" viewBox="0 0 64 61" fill="none" xmlns="http://www.w3.org/2000/svg">
  <path
    d="M62.937 24.148l-.09-.228-8.711-22.5a2.252 2.252 0 00-.897-1.07 2.352 2.352 0 00-2.666.142c-.372.3-.642.705-.773 1.161l-5.882 17.811H20.101l-5.882-17.81a2.26 2.26 0 00-.773-1.165A2.347 2.347 0 0010.78.347a2.271 2.271 0 00-.897 1.069l-8.728 22.49-.086.228a15.855 15.855 0 00-.441 10.14 16.007 16.007 0 005.806 8.364l.03.023.08.056 13.27 9.835 6.565 4.918 4 2.988a2.708 2.708 0 003.252 0l3.999-2.988 6.565-4.918 13.35-9.895.033-.026a16.014 16.014 0 005.794-8.357 15.861 15.861 0 00-.435-10.127z"
    fill="#fff"
  />
</svg>
