<svg xmlns="http://www.w3.org/2000/svg" version="1.1" xmlns:xlink="http://www.w3.org/1999/xlink" width="512" height="512" x="0" y="0" viewBox="0 0 1.707 1.707" style="enable-background:new 0 0 512 512" xml:space="preserve" fill-rule="evenodd"><g><g fill-rule="nonzero"><path d="M.311.249a.043.043 0 0 0-.06.06.854.854 0 0 0 1.205 0 .043.043 0 0 0-.06-.06.77.77 0 0 1-1.085 0zM1.396 1.458a.043.043 0 0 0 .06-.06.854.854 0 0 0-1.205 0 .043.043 0 0 0 .06.06.77.77 0 0 1 1.085 0z" fill="#fff" opacity="1" data-original="#fff"></path><path d="M1.25.853c0-.216-.047-.412-.124-.553C1.054.168.958.085.853.085.75.085.653.168.58.3.504.441.457.637.457.853s.047.413.123.553c.072.133.169.215.273.215.105 0 .201-.082.273-.215.077-.14.124-.336.124-.553zM1.2.26c.083.153.134.362.134.593s-.051.441-.134.594c-.087.16-.21.26-.348.26-.138 0-.26-.1-.348-.26C.423 1.294.372 1.084.372.853S.422.413.505.26C.592.1.715 0 .853 0c.138 0 .261.1.348.26z" fill="#fff" opacity="1" data-original="#fff"></path><path d="M.043.81a.043.043 0 0 0 0 .086h1.621a.043.043 0 0 0 0-.085H.043z" fill="#fff" opacity="1" data-original="#fff"></path><path d="M.81 1.661a.043.043 0 0 0 .086 0V.045a.043.043 0 0 0-.085 0V1.483z" fill="#fff" opacity="1" data-original="#fff"></path><path d="M1.621.853a.768.768 0 1 0-1.536 0 .768.768 0 0 0 1.536 0zm.086 0A.853.853 0 1 1 0 .853a.853.853 0 0 1 1.707 0z" fill="#fff" opacity="1" data-original="#fff"></path></g></g></svg>