<svg width="66" height="66" viewBox="0 0 66 66" fill="none" xmlns="http://www.w3.org/2000/svg">
  <path
    d="M33 0C14.774 0 0 14.774 0 33s14.774 33 33 33 33-14.774 33-33C66 14.776 51.226.002 33 0zm15.134 47.594a2.056 2.056 0 01-2.828.684c-7.748-4.735-17.503-5.805-28.99-3.181a2.055 2.055 0 01-2.463-1.547 2.053 2.053 0 011.547-2.464c12.57-2.87 23.353-1.635 32.052 3.68a2.058 2.058 0 01.682 2.828zm4.038-8.983a2.575 2.575 0 01-3.54.847c-8.868-5.451-22.392-7.03-32.883-3.846a2.577 2.577 0 01-3.211-1.714 2.577 2.577 0 011.716-3.208c11.984-3.637 26.884-1.876 37.069 4.384a2.57 2.57 0 01.849 3.538zm.347-9.358c-10.638-6.316-28.184-6.897-38.34-3.817a3.084 3.084 0 01-3.848-2.056 3.089 3.089 0 012.058-3.85c11.658-3.538 31.034-2.856 43.28 4.413a3.087 3.087 0 01-3.15 5.31z"
    fill="#fff"
  />
</svg>
