<svg width="23" height="18" viewBox="0 0 23 18" fill="none" xmlns="http://www.w3.org/2000/svg">
<path d="M22.8331 2.16548C22.0234 2.5335 21.1507 2.77534 20.2464 2.89101C21.1717 2.33372 21.8868 1.45047 22.2232 0.388462C21.3505 0.914206 20.3831 1.28223 19.3632 1.49253C18.5325 0.588245 17.3654 0.0625 16.0405 0.0625C13.5695 0.0625 11.5506 2.08136 11.5506 4.57339C11.5506 4.9309 11.5927 5.27789 11.6663 5.60385C7.92298 5.41458 4.58975 3.61653 2.37111 0.893177C1.98206 1.55561 1.76125 2.33372 1.76125 3.15388C1.76125 4.7206 2.54987 6.10856 3.76959 6.89718C3.02304 6.89718 2.32905 6.68688 1.71919 6.37144V6.40298C1.71919 8.59008 3.27539 10.4197 5.33631 10.8298C4.67464 11.0108 3.97999 11.036 3.30694 10.9034C3.59253 11.7997 4.15185 12.5841 4.90627 13.1461C5.66069 13.7082 6.57228 14.0196 7.51289 14.0368C5.91845 15.299 3.94203 15.9813 1.90846 15.9715C1.55095 15.9715 1.19344 15.9505 0.835938 15.9084C2.83377 17.1913 5.21013 17.9378 7.75474 17.9378C16.0405 17.9378 20.5934 11.0611 20.5934 5.09913C20.5934 4.89935 20.5934 4.71008 20.5829 4.5103C21.4662 3.87941 22.2232 3.08027 22.8331 2.16548Z" fill="#fff"/>
</svg>
