<svg width="864" height="1004" viewBox="0 0 864 1004" fill="none" xmlns="http://www.w3.org/2000/svg">
<mask id="mask0_1919_15886" style="mask-type:alpha" maskUnits="userSpaceOnUse" x="0" y="0" width="882" height="1004">
<rect width="882" height="1004" transform="matrix(-1 0 0 1 882 0)" fill="url(#paint0_radial_1919_15886)"/>
</mask>
<g mask="url(#mask0_1919_15886)">
<g style="mix-blend-mode:overlay">
<rect x="50.3577" y="34.3577" width="96.9988" height="96.9988" stroke="white" stroke-width="0.715481"/>
</g>
<g style="mix-blend-mode:overlay">
<rect x="148.072" y="34.3577" width="96.9988" height="96.9988" stroke="white" stroke-width="0.715481"/>
</g>
<g style="mix-blend-mode:overlay">
<rect x="245.786" y="34.3577" width="96.9988" height="96.9988" stroke="white" stroke-width="0.715481"/>
</g>
<g style="mix-blend-mode:overlay">
<rect x="343.5" y="34.3577" width="96.9988" height="96.9988" stroke="white" stroke-width="0.715481"/>
</g>
<g style="mix-blend-mode:overlay">
<rect x="441.215" y="34.3577" width="96.9988" height="96.9988" stroke="white" stroke-width="0.715481"/>
</g>
<g style="mix-blend-mode:overlay">
<rect x="538.929" y="34.3577" width="96.9988" height="96.9988" stroke="white" stroke-width="0.715481"/>
</g>
<g style="mix-blend-mode:overlay">
<rect x="636.644" y="34.3577" width="96.9988" height="96.9988" stroke="white" stroke-width="0.715481"/>
</g>
<g style="mix-blend-mode:overlay">
<rect x="734.358" y="34.3577" width="96.9988" height="96.9988" stroke="white" stroke-width="0.715481"/>
</g>
<g style="mix-blend-mode:overlay">
<rect x="832.072" y="34.3577" width="96.9988" height="96.9988" stroke="white" stroke-width="0.715481"/>
</g>
<g style="mix-blend-mode:overlay">
<rect x="50.3577" y="132.072" width="96.9988" height="96.9988" stroke="white" stroke-width="0.715481"/>
</g>
<g style="mix-blend-mode:overlay">
<rect x="148.072" y="132.072" width="96.9988" height="96.9988" stroke="white" stroke-width="0.715481"/>
</g>
<g style="mix-blend-mode:overlay">
<rect x="245.786" y="132.072" width="96.9988" height="96.9988" stroke="white" stroke-width="0.715481"/>
</g>
<g style="mix-blend-mode:overlay">
<rect x="343.5" y="132.072" width="96.9988" height="96.9988" stroke="white" stroke-width="0.715481"/>
</g>
<g style="mix-blend-mode:overlay">
<rect x="441.215" y="132.072" width="96.9988" height="96.9988" stroke="white" stroke-width="0.715481"/>
</g>
<g style="mix-blend-mode:overlay">
<rect x="538.929" y="132.072" width="96.9988" height="96.9988" stroke="white" stroke-width="0.715481"/>
</g>
<g style="mix-blend-mode:overlay">
<rect x="636.644" y="132.072" width="96.9988" height="96.9988" stroke="white" stroke-width="0.715481"/>
</g>
<g style="mix-blend-mode:overlay">
<rect x="734.358" y="132.072" width="96.9988" height="96.9988" stroke="white" stroke-width="0.715481"/>
</g>
<g style="mix-blend-mode:overlay">
<rect x="832.072" y="132.072" width="96.9988" height="96.9988" stroke="white" stroke-width="0.715481"/>
</g>
<g style="mix-blend-mode:overlay">
<rect x="50.3577" y="229.786" width="96.9988" height="96.9988" stroke="white" stroke-width="0.715481"/>
</g>
<g style="mix-blend-mode:overlay">
<rect x="148.072" y="229.786" width="96.9988" height="96.9988" stroke="white" stroke-width="0.715481"/>
</g>
<g style="mix-blend-mode:overlay">
<rect x="245.786" y="229.786" width="96.9988" height="96.9988" stroke="white" stroke-width="0.715481"/>
</g>
<g style="mix-blend-mode:overlay">
<rect x="343.5" y="229.786" width="96.9988" height="96.9988" stroke="white" stroke-width="0.715481"/>
</g>
<g style="mix-blend-mode:overlay">
<rect x="441.215" y="229.786" width="96.9988" height="96.9988" stroke="white" stroke-width="0.715481"/>
</g>
<g style="mix-blend-mode:overlay">
<rect x="538.929" y="229.786" width="96.9988" height="96.9988" stroke="white" stroke-width="0.715481"/>
</g>
<g style="mix-blend-mode:overlay">
<rect x="636.644" y="229.786" width="96.9988" height="96.9988" stroke="white" stroke-width="0.715481"/>
</g>
<g style="mix-blend-mode:overlay">
<rect x="734.358" y="229.786" width="96.9988" height="96.9988" stroke="white" stroke-width="0.715481"/>
</g>
<g style="mix-blend-mode:overlay">
<rect x="832.072" y="229.786" width="96.9988" height="96.9988" stroke="white" stroke-width="0.715481"/>
</g>
<g style="mix-blend-mode:overlay">
<rect x="50.3577" y="327.501" width="96.9988" height="96.9988" stroke="white" stroke-width="0.715481"/>
</g>
<g style="mix-blend-mode:overlay">
<rect x="148.072" y="327.501" width="96.9988" height="96.9988" stroke="white" stroke-width="0.715481"/>
</g>
<g style="mix-blend-mode:overlay">
<rect x="245.786" y="327.501" width="96.9988" height="96.9988" stroke="white" stroke-width="0.715481"/>
</g>
<g style="mix-blend-mode:overlay">
<rect x="343.5" y="327.501" width="96.9988" height="96.9988" stroke="white" stroke-width="0.715481"/>
</g>
<g style="mix-blend-mode:overlay">
<rect x="441.215" y="327.501" width="96.9988" height="96.9988" stroke="white" stroke-width="0.715481"/>
</g>
<g style="mix-blend-mode:overlay">
<rect x="538.929" y="327.501" width="96.9988" height="96.9988" stroke="white" stroke-width="0.715481"/>
</g>
<g style="mix-blend-mode:overlay">
<rect x="636.644" y="327.501" width="96.9988" height="96.9988" stroke="white" stroke-width="0.715481"/>
</g>
<g style="mix-blend-mode:overlay">
<rect x="734.358" y="327.501" width="96.9988" height="96.9988" stroke="white" stroke-width="0.715481"/>
</g>
<g style="mix-blend-mode:overlay">
<rect x="832.072" y="327.501" width="96.9988" height="96.9988" stroke="white" stroke-width="0.715481"/>
</g>
<g style="mix-blend-mode:overlay">
<rect x="50.3577" y="425.215" width="96.9988" height="96.9988" stroke="white" stroke-width="0.715481"/>
</g>
<g style="mix-blend-mode:overlay">
<rect x="148.072" y="425.215" width="96.9988" height="96.9988" stroke="white" stroke-width="0.715481"/>
</g>
<g style="mix-blend-mode:overlay">
<rect x="245.786" y="425.215" width="96.9988" height="96.9988" stroke="white" stroke-width="0.715481"/>
</g>
<g style="mix-blend-mode:overlay">
<rect x="343.5" y="425.215" width="96.9988" height="96.9988" stroke="white" stroke-width="0.715481"/>
</g>
<g style="mix-blend-mode:overlay">
<rect x="441.215" y="425.215" width="96.9988" height="96.9988" stroke="white" stroke-width="0.715481"/>
</g>
<g style="mix-blend-mode:overlay">
<rect x="538.929" y="425.215" width="96.9988" height="96.9988" stroke="white" stroke-width="0.715481"/>
</g>
<g style="mix-blend-mode:overlay">
<rect x="636.644" y="425.215" width="96.9988" height="96.9988" stroke="white" stroke-width="0.715481"/>
</g>
<g style="mix-blend-mode:overlay">
<rect x="734.358" y="425.215" width="96.9988" height="96.9988" stroke="white" stroke-width="0.715481"/>
</g>
<g style="mix-blend-mode:overlay">
<rect x="832.072" y="425.215" width="96.9988" height="96.9988" stroke="white" stroke-width="0.715481"/>
</g>
<g style="mix-blend-mode:overlay">
<rect x="50.3577" y="522.929" width="96.9988" height="96.9988" stroke="white" stroke-width="0.715481"/>
</g>
<g style="mix-blend-mode:overlay">
<rect x="148.072" y="522.929" width="96.9988" height="96.9988" stroke="white" stroke-width="0.715481"/>
</g>
<g style="mix-blend-mode:overlay">
<rect x="245.786" y="522.929" width="96.9988" height="96.9988" stroke="white" stroke-width="0.715481"/>
</g>
<g style="mix-blend-mode:overlay">
<rect x="343.5" y="522.929" width="96.9988" height="96.9988" stroke="white" stroke-width="0.715481"/>
</g>
<g style="mix-blend-mode:overlay">
<rect x="441.215" y="522.929" width="96.9988" height="96.9988" stroke="white" stroke-width="0.715481"/>
</g>
<g style="mix-blend-mode:overlay">
<rect x="538.929" y="522.929" width="96.9988" height="96.9988" stroke="white" stroke-width="0.715481"/>
</g>
<g style="mix-blend-mode:overlay">
<rect x="636.644" y="522.929" width="96.9988" height="96.9988" stroke="white" stroke-width="0.715481"/>
</g>
<g style="mix-blend-mode:overlay">
<rect x="734.358" y="522.929" width="96.9988" height="96.9988" stroke="white" stroke-width="0.715481"/>
</g>
<g style="mix-blend-mode:overlay">
<rect x="832.072" y="522.929" width="96.9988" height="96.9988" stroke="white" stroke-width="0.715481"/>
</g>
<g style="mix-blend-mode:overlay">
<rect x="50.3577" y="620.643" width="96.9988" height="96.9988" stroke="white" stroke-width="0.715481"/>
</g>
<g style="mix-blend-mode:overlay">
<rect x="148.072" y="620.643" width="96.9988" height="96.9988" stroke="white" stroke-width="0.715481"/>
</g>
<g style="mix-blend-mode:overlay">
<rect x="245.786" y="620.643" width="96.9988" height="96.9988" stroke="white" stroke-width="0.715481"/>
</g>
<g style="mix-blend-mode:overlay">
<rect x="343.5" y="620.643" width="96.9988" height="96.9988" stroke="white" stroke-width="0.715481"/>
</g>
<g style="mix-blend-mode:overlay">
<rect x="441.215" y="620.643" width="96.9988" height="96.9988" stroke="white" stroke-width="0.715481"/>
</g>
<g style="mix-blend-mode:overlay">
<rect x="538.929" y="620.643" width="96.9988" height="96.9988" stroke="white" stroke-width="0.715481"/>
</g>
<g style="mix-blend-mode:overlay">
<rect x="636.644" y="620.643" width="96.9988" height="96.9988" stroke="white" stroke-width="0.715481"/>
</g>
<g style="mix-blend-mode:overlay">
<rect x="734.358" y="620.643" width="96.9988" height="96.9988" stroke="white" stroke-width="0.715481"/>
</g>
<g style="mix-blend-mode:overlay">
<rect x="832.073" y="620.643" width="96.9988" height="96.9988" stroke="white" stroke-width="0.715481"/>
</g>
<g style="mix-blend-mode:overlay">
<rect x="50.3577" y="718.358" width="96.9988" height="96.9988" stroke="white" stroke-width="0.715481"/>
</g>
<g style="mix-blend-mode:overlay">
<rect x="148.072" y="718.358" width="96.9988" height="96.9988" stroke="white" stroke-width="0.715481"/>
</g>
<g style="mix-blend-mode:overlay">
<rect x="245.786" y="718.358" width="96.9988" height="96.9988" stroke="white" stroke-width="0.715481"/>
</g>
<g style="mix-blend-mode:overlay">
<rect x="343.5" y="718.358" width="96.9988" height="96.9988" stroke="white" stroke-width="0.715481"/>
</g>
<g style="mix-blend-mode:overlay">
<rect x="441.215" y="718.358" width="96.9988" height="96.9988" stroke="white" stroke-width="0.715481"/>
</g>
<g style="mix-blend-mode:overlay">
<rect x="538.929" y="718.358" width="96.9988" height="96.9988" stroke="white" stroke-width="0.715481"/>
</g>
<g style="mix-blend-mode:overlay">
<rect x="636.644" y="718.358" width="96.9988" height="96.9988" stroke="white" stroke-width="0.715481"/>
</g>
<g style="mix-blend-mode:overlay">
<rect x="734.358" y="718.358" width="96.9988" height="96.9988" stroke="white" stroke-width="0.715481"/>
</g>
<g style="mix-blend-mode:overlay">
<rect x="832.072" y="718.358" width="96.9988" height="96.9988" stroke="white" stroke-width="0.715481"/>
</g>
<g style="mix-blend-mode:overlay">
<rect x="50.3577" y="816.072" width="96.9988" height="96.9988" stroke="white" stroke-width="0.715481"/>
</g>
<g style="mix-blend-mode:overlay">
<rect x="148.072" y="816.072" width="96.9988" height="96.9988" stroke="white" stroke-width="0.715481"/>
</g>
<g style="mix-blend-mode:overlay">
<rect x="245.786" y="816.072" width="96.9988" height="96.9988" stroke="white" stroke-width="0.715481"/>
</g>
<g style="mix-blend-mode:overlay">
<rect x="343.5" y="816.072" width="96.9988" height="96.9988" stroke="white" stroke-width="0.715481"/>
</g>
<g style="mix-blend-mode:overlay">
<rect x="441.215" y="816.072" width="96.9988" height="96.9988" stroke="white" stroke-width="0.715481"/>
</g>
<g style="mix-blend-mode:overlay">
<rect x="538.929" y="816.072" width="96.9988" height="96.9988" stroke="white" stroke-width="0.715481"/>
</g>
<g style="mix-blend-mode:overlay">
<rect x="636.644" y="816.072" width="96.9988" height="96.9988" stroke="white" stroke-width="0.715481"/>
</g>
<g style="mix-blend-mode:overlay">
<rect x="734.358" y="816.072" width="96.9988" height="96.9988" stroke="white" stroke-width="0.715481"/>
</g>
<g style="mix-blend-mode:overlay">
<rect x="832.072" y="816.072" width="96.9988" height="96.9988" stroke="white" stroke-width="0.715481"/>
</g>
<g style="mix-blend-mode:overlay">
<rect x="50.3577" y="913.786" width="96.9988" height="96.9988" stroke="white" stroke-width="0.715481"/>
</g>
<g style="mix-blend-mode:overlay">
<rect x="148.072" y="913.786" width="96.9988" height="96.9988" stroke="white" stroke-width="0.715481"/>
</g>
<g style="mix-blend-mode:overlay">
<rect x="245.786" y="913.786" width="96.9988" height="96.9988" stroke="white" stroke-width="0.715481"/>
</g>
<g style="mix-blend-mode:overlay">
<rect x="343.5" y="913.786" width="96.9988" height="96.9988" stroke="white" stroke-width="0.715481"/>
</g>
<g style="mix-blend-mode:overlay">
<rect x="441.215" y="913.786" width="96.9988" height="96.9988" stroke="white" stroke-width="0.715481"/>
</g>
<g style="mix-blend-mode:overlay">
<rect x="538.929" y="913.786" width="96.9988" height="96.9988" stroke="white" stroke-width="0.715481"/>
</g>
<g style="mix-blend-mode:overlay">
<rect x="636.644" y="913.786" width="96.9988" height="96.9988" stroke="white" stroke-width="0.715481"/>
</g>
<g style="mix-blend-mode:overlay">
<rect x="734.358" y="913.786" width="96.9988" height="96.9988" stroke="white" stroke-width="0.715481"/>
</g>
<g style="mix-blend-mode:overlay">
<rect x="832.072" y="913.786" width="96.9988" height="96.9988" stroke="white" stroke-width="0.715481"/>
</g>
</g>
<defs>
<radialGradient id="paint0_radial_1919_15886" cx="0" cy="0" r="1" gradientUnits="userSpaceOnUse" gradientTransform="translate(60.5 908) rotate(-50.9312) scale(886.153 778.473)">
<stop stop-color="#737373"/>
<stop offset="1" stop-color="#D9D9D9" stop-opacity="0"/>
</radialGradient>
</defs>
</svg>
