<svg width="256" height="256" viewBox="0 0 256 256" fill="none" xmlns="http://www.w3.org/2000/svg">
<path d="M23.8126 84.6821C21.9449 76.2657 22.2317 67.5138 24.6464 59.2378C27.0611 50.9619 31.5254 43.4298 37.6256 37.34C43.7257 31.2502 51.2642 26.7999 59.5419 24.4016C67.8196 22.0033 76.5687 21.7347 84.9778 23.6208C89.6063 16.3792 95.9825 10.4198 103.519 6.29175C111.055 2.16373 119.509 0 128.101 0C136.693 0 145.146 2.16373 152.682 6.29175C160.219 10.4198 166.595 16.3792 171.223 23.6208C179.645 21.7265 188.409 21.9939 196.7 24.398C204.991 26.8021 212.54 31.2649 218.644 37.3711C224.747 43.4774 229.208 51.0289 231.612 59.3231C234.015 67.6173 234.282 76.3848 232.389 84.8101C239.627 89.4404 245.584 95.8191 249.711 103.358C253.837 110.897 256 119.354 256 127.95C256 136.545 253.837 145.002 249.711 152.541C245.584 160.081 239.627 166.459 232.389 171.09C234.274 179.502 234.005 188.255 231.608 196.536C229.211 204.817 224.762 212.358 218.675 218.46C212.587 224.563 205.058 229.029 196.786 231.445C188.513 233.86 179.764 234.147 171.351 232.279C166.729 239.548 160.348 245.533 152.799 249.68C145.25 253.826 136.777 256 128.165 256C119.552 256 111.08 253.826 103.531 249.68C95.9814 245.533 89.6003 239.548 84.9778 232.279C76.5687 234.165 67.8196 233.896 59.5419 231.498C51.2642 229.1 43.7257 224.649 37.6256 218.56C31.5254 212.47 27.0611 204.938 24.6464 196.662C22.2317 188.386 21.9449 179.634 23.8126 171.218C16.5183 166.599 10.51 160.211 6.34664 152.646C2.18324 145.081 0 136.586 0 127.95C0 119.314 2.18324 110.819 6.34664 103.254C10.51 95.6888 16.5183 89.3002 23.8126 84.6821Z" fill="url(#paint0_linear_2691_13004)"/>
<g style="mix-blend-mode:overlay">
<path d="M27.8245 91.0189L32.2759 88.2007L31.1345 83.0573C29.5403 75.8732 29.7851 68.4027 31.8462 61.3385C33.9073 54.2743 37.7179 47.8455 42.9244 42.6478C48.1309 37.4502 54.5646 33.6521 61.629 31.6053C68.6934 29.5586 76.16 29.3294 83.3365 30.939L88.4661 32.0895L91.2973 27.6599C95.2479 21.4789 100.69 16.3926 107.122 12.8696C113.554 9.34654 120.768 7.5 128.101 7.5C135.433 7.5 142.648 9.34654 149.079 12.8696C155.511 16.3926 160.953 21.4789 164.904 27.6599L167.737 32.0923L172.869 30.938C180.057 29.3214 187.536 29.5496 194.612 31.6013C201.687 33.653 208.13 37.4617 213.339 42.6734L218.644 37.3711L213.339 42.6734C218.549 47.8851 222.357 54.3306 224.408 61.4103C226.459 68.4901 226.687 75.9739 225.071 83.1656L223.918 88.2951L228.347 91.1281C234.525 95.0799 239.61 100.524 243.132 106.959C246.654 113.394 248.5 120.613 248.5 127.95C248.5 135.287 246.654 142.505 243.132 148.941C239.61 155.376 234.525 160.82 228.347 164.772L223.921 167.603L225.07 172.73C226.679 179.91 226.45 187.381 224.404 194.45C222.358 201.518 218.56 207.955 213.365 213.164C208.169 218.372 201.743 222.184 194.683 224.245C187.623 226.307 180.157 226.552 172.977 224.957L167.844 223.817L165.022 228.254C161.077 234.459 155.631 239.567 149.188 243.106C142.745 246.645 135.514 248.5 128.165 248.5C120.815 248.5 113.584 246.645 107.141 243.106C100.698 239.567 95.2521 234.459 91.3067 228.254L88.4788 223.807L83.3365 224.961C76.16 226.57 68.6934 226.341 61.629 224.294C54.5646 222.248 48.1309 218.449 42.9244 213.252C37.7179 208.054 33.9073 201.625 31.8462 194.561C29.7851 187.497 29.5403 180.026 31.1345 172.842L32.2759 167.699L27.8245 164.881C21.5991 160.939 16.4709 155.487 12.9173 149.03C9.3636 142.573 7.5 135.321 7.5 127.95C7.5 120.578 9.3636 113.327 12.9173 106.87C16.4709 100.413 21.5991 94.9602 27.8245 91.0189Z" stroke="url(#paint1_linear_2691_13004)" stroke-width="15"/>
</g>
<g style="mix-blend-mode:overlay">
<path d="M190.999 94.026L173.744 78.49L112.184 146.551L80.4903 114.633L64.0742 131.051L113.313 180.29L113.318 180.299L113.327 180.304L113.399 180.21L190.999 94.026Z" fill="white"/>
</g>
<g style="mix-blend-mode:overlay">
<path d="M190.925 110.606V94L113.431 180.372L64 130.94V147.631L113.431 196.995L190.925 110.606Z" fill="black" fill-opacity="0.5"/>
</g>
<defs>
<linearGradient id="paint0_linear_2691_13004" x1="19" y1="11" x2="244.5" y2="244.5" gradientUnits="userSpaceOnUse">
<stop stop-color="#FFE0A2"/>
<stop offset="1" stop-color="#FFB406"/>
</linearGradient>
<linearGradient id="paint1_linear_2691_13004" x1="23.6439" y1="6.3694" x2="238" y2="243" gradientUnits="userSpaceOnUse">
<stop stop-color="#ECECEC"/>
<stop offset="0.685387" stop-color="#030303"/>
<stop offset="1" stop-color="#C1C1C1"/>
</linearGradient>
</defs>
</svg>
